<?xml version="1.0" standalone="no"?>
<!DOCTYPE svg PUBLIC "-//W3C//DTD SVG 1.1//EN" "http://www.w3.org/Graphics/SVG/1.1/DTD/svg11.dtd" >
<svg xmlns="http://www.w3.org/2000/svg">
<metadata>Generated by IcoMoon</metadata>
<defs>
<font id="icomoon" horiz-adv-x="1024">
<font-face units-per-em="1024" ascent="960" descent="-64" />
<missing-glyph horiz-adv-x="1024" />
<glyph unicode="&#x20;" horiz-adv-x="512" d="" />
<glyph unicode="&#xe000;" glyph-name="uniE000" horiz-adv-x="1200" d="M1114.8 960h-1029.048c-47.352 0-85.752-38.206-85.752-85.346v-853.328c0-47.12 38.4-85.326 85.752-85.326h1029.050c47.35 0 85.75 38.206 85.75 85.328v853.326c0 47.14-38.4 85.346-85.752 85.346zM410.006 896c23.676 0 42.866-19.102 42.866-42.672 0-23.552-19.192-42.654-42.866-42.654s-42.884 19.102-42.884 42.654c0 23.57 19.208 42.672 42.884 42.672zM278.704 896c23.676 0 42.884-19.102 42.884-42.672 0-23.552-19.192-42.654-42.884-42.654s-42.866 19.102-42.866 42.654c-0.018 23.57 19.174 42.672 42.866 42.672zM150.068 896c23.676 0 42.866-19.102 42.866-42.672 0-23.552-19.192-42.654-42.866-42.654-23.676 0-42.884 19.102-42.884 42.654 0 23.57 19.21 42.672 42.884 42.672zM1114.8 21.328h-1029.048v724.444h1029.050l-0.002-724.444zM1114.8 831.1h-600.276v42.672h600.276v-42.672z" />
<glyph unicode="&#xe001;" glyph-name="uniE001" horiz-adv-x="946" d="M712.803 857.936c-37.412 0-72.977-7.663-105.634-20.976l-102.637 102.917c-15.685 15.736-41.097 15.736-56.783 0l-85.154-85.396c-15.685-15.722-15.685-41.214 0-56.922l26.664-26.752-269.503-270.219c-72.926 40.027-110.529 16.297-112.023-72.696-1.403-83.675 30.973-110.887 96.517-82.681l331.757-332.662h-172.351c-22.174 0-40.141-18.019-40.141-40.257v-40.257h292.788l0.407-0.421 0.407 0.421h188.148v40.257c0 22.239-17.967 40.257-40.141 40.257h-172.349l-351.648 352.63c57.255 36.84 62.201 74.571 13.261 113.207l263.256 263.97 43.305-43.405c-18.107-37.261-29.176-78.563-29.176-122.797 0-88.037 40.269-166.649 103.338-218.331 1.403-0.614 405.19 390.692 403.431 391.215-51.211 69.139-133.266 108.898-225.739 108.898zM693.561 457.066c0 0 84.465-68.769 152.227-0.842 67.749 67.927 0 153.476 0 153.476l-152.227-152.634z" />
<glyph unicode="&#xe002;" glyph-name="uniE002" horiz-adv-x="542" d="M271.508 177.645c108.326 0 196.125 86.714 196.125 193.681v87.295h-160.471v35.227h160.471v35.211h-160.471v35.227h160.471v35.211h-160.471v35.211h160.471v35.201h-160.471v35.211h160.471v55.753c0 106.951-87.802 191.464-196.125 191.464-108.326 0-196.125-84.514-196.125-191.464v-55.753h160.471v-35.211h-160.471v-35.227h160.471v-35.211h-160.471v-35.211h160.471v-35.227h-160.471v-35.211h160.471v-35.227h-160.471v-87.295c0-106.955 87.8-193.655 196.125-193.655zM538.958 367.505v54.805h-37.733v-54.805c0-125.855-103.312-227.883-230.771-227.928h-0.122c-127.459 0.045-230.771 102.075-230.771 227.928v54.805h-35.504v-54.805c0-132.473 99.522-240.996 228.57-259.228v-106.415c-101.096-7.534-177.558-41.34-177.558-72.685 0-0.841 437.978-0.841 437.978 0 0 32.538-82.589 67.459-189.402 73.144v105.499c131.22 16.352 235.312 125.7 235.312 259.685z" />
<glyph unicode="&#xe003;" glyph-name="uniE003" horiz-adv-x="752" d="M657.867 357.229c0 0-80.823-124.136-211.418-236.239 15.402-90.583-21.774-135.951-21.774-135.951s161.908 14.199 262.396 188.254c58.683 101.635-29.204 183.936-29.204 183.936zM182.362 87.36l38.744 25.902-14.12-84.674 62.15 56.94 8.523-32.771 57.769 33.489-141.351 81.605zM626.332 367.852c23.849 41.316 40.489 80.778 52.578 118.34l-309.905 178.923c-26.41-29.249-52.225-63.387-76.097-104.716-53.052-91.897-112.908-352.635-112.908-352.635l197.617-114.089c0 0 196.458 183.671 248.716 274.177zM394.533 497.465c20.426 35.375 65.243 47.731 100.1 27.604s46.571-65.122 26.145-100.497c-20.426-35.375-65.243-47.731-100.1-27.614-34.856 20.138-46.56 65.131-26.145 100.508zM94.232 515.561c-100.486-174.054-31.842-321.355-31.842-321.355s20.702 54.885 106.857 86.828c31.788 169.152 98.886 301.217 98.886 301.217s-115.215 34.957-173.9-66.69zM672.066 807.029l49.079 84.995-24.579 14.188-50.348-87.214c-43.337-5.311-153.353-28.817-257.923-133.234l298.787-172.51c39.020 146.959 1.094 256.797-15.015 293.775z" />
<glyph unicode="&#xe004;" glyph-name="uniE004" d="M992.422 100.445c-29.903 28.037-62.498 78.389-221.157 101.322-158.659 22.946-130.537 102.527-131.631 107.367 0.28 12.217 5.82 64.027 5.82 64.027s51.11 41.67 75.431 109.582c38.276 23.676 52.863 26.986 59.202 54.279 0 0 12.917 103.145-28.205 103.145 0 0-17.14-2.692-11.655 21.487 5.483 24.165 3.647 99.652 0.911 126.525-2.736 26.846 5.26 103.622-52.301 114.365-39.299 7.168-43.857-3.716-63.060-1.024-19.16 2.692-42.007 51.404-77.648 51.404l-74.013-11.641c-35.639 0-30.155-10.743-49.343-13.436-19.187-2.678 3.886 2.692-53.676-8.051s-77.898-83.271-80.648-110.129c-2.736-26.86-3.436-102.36-1.6-142.641 5.483-24.181-13.718-24.181-13.718-24.181-34.489 2.16-18.99-103.145-18.99-103.145 4.964-25.962-1.781-38.893 49.285-58.991 24.335-67.898 86.23-102.176 86.23-102.176s3.085-43.536 4.053-74.561c-5.203 2.552 16.649-79.273-142.010-102.22-158.657-22.919-189.037-73.271-218.94-101.308-29.917-28.037-27.645-157.438-27.645-157.438l1021.728-0.002c0 0-6.507 129.403-36.424 157.44z" />
<glyph unicode="&#xe005;" glyph-name="uniE005" horiz-adv-x="880" d="M282.549 604.795c0-39.233 31.726-71.038 70.862-71.038s70.862 31.805 70.862 71.038c0 39.233-31.726 71.038-70.862 71.038s-70.862-31.805-70.862-71.038zM601.307 335.3l20.047 20.095c22.127 22.191 22.127 58.174 0 80.365l-34.607 34.671c11.152 19.423 19.887 40.351 25.967 62.414h37.423c31.311 0 56.686 25.455 56.686 56.83v28.415c0 31.375-25.375 56.83-56.686 56.83h-36.959c-5.872 21.871-14.256 42.671-25.087 61.982l33.263 33.343c22.127 22.207 22.127 58.174 0 80.381l-20.047 20.079c-22.143 22.207-58.030 22.207-80.173 0l-32.607-32.687c-19.935 11.648-41.471 20.719-64.254 26.943v38.191c0 31.391-25.375 56.83-56.67 56.83h-28.351c-31.311 0-56.686-25.439-56.686-56.83v-38.175c-22.767-6.224-44.303-15.296-64.238-26.943l-32.623 32.687c-22.127 22.207-58.014 22.207-80.157 0l-20.047-20.079c-22.143-22.207-22.143-58.174 0-80.381l33.263-33.343c-10.848-19.311-19.231-40.111-25.087-61.982h-36.975c-31.311 0-56.686-25.439-56.686-56.83v-28.415c0-31.375 25.375-56.83 56.686-56.83h37.423c6.080-22.063 14.816-43.007 25.967-62.414l-34.591-34.671c-22.143-22.207-22.143-58.19 0-80.365l20.031-20.095c22.143-22.207 58.030-22.207 80.157 0l34.815 34.895c19.311-11.008 40.111-19.599 62.030-25.599v-36.383c0-31.391 25.375-56.846 56.686-56.846h28.351c31.311 0 56.67 25.439 56.67 56.846v36.383c21.919 6 42.735 14.576 62.046 25.599l34.815-34.895c22.175-22.223 58.062-22.223 80.205-0.016zM353.411 446.72c-86.093 0-155.883 69.966-155.883 156.283 0 86.333 69.79 156.299 155.883 156.299s155.899-69.966 155.899-156.299c0-86.317-69.79-156.283-155.899-156.283zM674.233 107.435c0-19.024 15.387-34.447 34.367-34.447s34.367 15.423 34.367 34.447c0 19.024-15.387 34.447-34.367 34.447s-34.367-15.423-34.367-34.447zM852.499 141.45h-17.919c-2.848 10.608-6.912 20.703-12.176 30.063l16.127 16.175c10.736 10.768 10.736 28.223 0 38.991l-9.712 9.728c-10.736 10.784-28.143 10.784-38.879 0l-15.824-15.84c-9.664 5.648-20.111 10.048-31.151 13.056v18.511c0 15.232-12.32 27.567-27.487 27.567h-13.744c-15.184 0-27.487-12.336-27.487-27.567v-18.511c-11.040-3.008-21.487-7.408-31.167-13.056l-15.808 15.84c-10.736 10.784-28.143 10.784-38.879 0l-9.712-9.728c-10.736-10.768-10.736-28.223 0-38.991l16.127-16.175c-5.264-9.36-9.328-19.455-12.176-30.063h-17.935c-15.184 0-27.487-12.336-27.487-27.567v-13.776c0-15.216 12.304-27.567 27.487-27.567h18.143c2.96-10.704 7.184-20.863 12.592-30.287l-16.767-16.831c-10.736-10.752-10.736-28.207 0-38.975l9.712-9.744c10.736-10.768 28.143-10.768 38.879 0l16.879 16.927c9.36-5.344 19.455-9.504 30.095-12.416v-17.663c0-15.232 12.304-27.567 27.487-27.567h13.744c15.184 0 27.487 12.336 27.487 27.567v17.663c10.64 2.912 20.719 7.056 30.079 12.416l16.895-16.927c10.736-10.768 28.143-10.768 38.879 0l9.712 9.744c10.736 10.752 10.736 28.223 0 38.975l-16.783 16.831c5.408 9.424 9.648 19.567 12.608 30.287h18.143c15.184 0 27.503 12.336 27.503 27.567v13.776c0 15.232-12.304 27.567-27.487 27.567zM708.6 30.765c-41.759 0-75.614 33.935-75.614 75.79 0 41.871 33.855 75.806 75.614 75.806s75.614-33.951 75.614-75.806c-0.016-41.855-33.871-75.79-75.614-75.79z" />
<glyph unicode="&#xe006;" glyph-name="uniE006" horiz-adv-x="1084" d="M931.035 603.507c-50.519 0-56.232-42.958-56.232-42.958v-478.312c0-20.162-16.41-36.574-36.741-36.574h-660.844c-20.276 0-36.685 16.354-36.685 36.574v658.489c0 20.218 16.41 36.574 36.685 36.574h473.047c0 0 42.117 18.314 42.117 53.712 0 0 2.464 56.009-38.815 56.009h-513.037c-60.878 0-110.166-49.177-110.166-109.777v-731.525c0-60.6 49.288-109.719 110.168-109.719h734.268c60.825 0 110.112 49.119 110.112 109.719l0.002 514.885c0 33.158-53.88 42.902-53.88 42.902zM1027.258 847.088l-78.076 81.269c0 0-23.3 31.644-50.575 4.424l-62.505-64.913 131.003-127.25 61.049 60.545c0.056-0.002 25.483 19.658-0.896 45.926zM630.326 404.342l312.079 302.052-138.678 130.836-315.326-311.239-48.448-121.37 61.945-67.377zM398.34 304.983l72.419 10.866-56.513 52.312z" />
<glyph unicode="&#xe007;" glyph-name="uniE007" horiz-adv-x="1344" d="M644.282 825.509h-53.401l-227.789-160.266c0 0-35.58-54.573-103.226-54.573h-128.077c0 0-110.318-6.783-110.318-109.084v-112.538c0 0-14.244-109.146 113.894-109.146h113.894c0 0 78.314-13.628 117.471-54.511l224.212-160.266 56.978-6.845c0 0 60.493 0 60.493 54.573v658.145c-0.123 0-3.638 54.511-64.131 54.511zM1124.586 960l-73.196-100.698c108.591-104.46 175.744-248.569 175.744-407.602 0-162.301-69.866-308.939-182.342-413.892l72.456-101.808c135.847 132.949 219.525 314.982 219.525 515.7 0 197.018-80.657 375.968-212.187 508.3zM909.315 755.705l-58.396-114.079c55.806-45.817 91.202-113.833 91.202-189.803 0-83.617-71.407-157.738-137.265-203.061l107.974-98.17c86.207 73.997 140.41 181.478 140.41 301.108 0 121.232-55.745 229.947-143.925 304.006z" />
<glyph unicode="&#xe008;" glyph-name="uniE008" horiz-adv-x="1136" d="M910.364 363.695v484.514c0 47.943-37.878 86.795-84.63 86.795h-741.112c-46.752 0-84.63-38.852-84.63-86.795v-484.516c0-47.888 37.878-86.74 84.63-86.74h141.231v-199.293l215.96 199.293h383.812c46.861 0 84.739 38.852 84.739 86.742zM1051.325 744.477h-105.95c0 0 0-386.843 0-423.207s-46.049-83.116-81.547-83.116c-35.498 0-414.44-2.165-414.44-2.165 0-47.888 37.933-77.055 84.685-77.055h163.2l212.821-197.939-0.27 197.941h141.501c46.752 0 84.685 29.167 84.685 77.055v424.125c0 47.943-37.933 84.36-84.685 84.36z" />
<glyph unicode="&#xe009;" glyph-name="uniE009" horiz-adv-x="1202" d="M1158.542 904.85c-42.292 53.18-132.323 55.15-194.006 45.769-50.167-7.62-219.884-82.032-277.671-260.208 102.342 7.705 155.94-7.329 146.1-119.3-4.146-46.816-27.93-98.153-54.521-147.357-30.694-56.698-88.23-168.084-163.688-87.811-68.005 72.275-62.855 210.42-78.432 302.418-8.668 51.632-17.797 115.95-34.84 169.089-14.656 45.643-48.323 100.708-89.444 112.643-44.134 12.938-98.738-7.203-130.814-26.004-102.132-59.63-179.935-144.511-268.29-214.524v-6.533c17.503-16.623 22.236-43.925 47.988-47.61 60.802-8.877 118.757 56.322 159.207-11.557 24.58-41.455 32.285-86.932 47.988-131.612 21.062-59.546 37.309-124.368 54.521-192.832 29.146-115.95 64.948-289.228 165.782-331.688 51.465-21.732 128.805 7.329 167.917 30.4 106.069 62.394 188.729 152.842 259.454 244.84 161.762 217.749 250.997 464.473 264.48 534.948 8.792 48.825 8.583 98.99-21.734 136.93z" />
<glyph unicode="&#xe00a;" glyph-name="uniE00A" horiz-adv-x="1298" d="M1274.911 838.766c-46.050-20.559-95.553-34.444-147.484-40.702 53.030 32.015 93.733 82.657 112.926 143.045-49.617-29.626-104.582-51.133-163.073-62.741-46.884 50.224-113.647 81.632-187.502 81.632-141.832 0-256.806-115.771-256.806-258.512 0-20.257 2.277-39.982 6.638-58.909-213.447 10.772-402.656 113.685-529.353 270.12-22.077-38.198-34.746-82.618-34.746-129.997 0-89.711 45.329-168.802 114.253-215.192-42.105 1.327-81.707 12.973-116.303 32.358-0.075-1.063-0.075-2.163-0.075-3.227 0-125.254 88.536-229.722 206.014-253.506-21.545-5.918-44.229-9.065-67.672-9.065-16.539 0-32.622 1.632-48.326 4.627 32.699-102.723 127.531-177.451 239.887-179.537-87.89-69.342-198.617-110.649-318.94-110.649-20.711 0-41.157 1.214-61.261 3.641 113.647-73.362 248.65-116.151 393.668-116.151 472.377 0 730.701 393.934 730.701 735.557 0 11.19-0.266 22.343-0.759 33.458 50.26 36.416 93.771 81.936 128.213 133.751z" />
<glyph unicode="&#xe00b;" glyph-name="uniE00B" d="M0.159 73.103c0-75.077 61.082-135.938 136.432-135.938s136.432 60.861 136.432 135.938c0 75.077-61.082 135.938-136.432 135.938s-136.432-60.861-136.432-135.938zM0.301 612.090v-196.265c127.854 0 248.013-49.807 338.309-140.208 90.438-90.544 140.28-211.054 140.28-339.403h196.971c0.034 372.688-303.046 675.876-675.56 675.876zM0.619 960v-196.265c455.609 0 826.253-371.315 826.253-827.735h196.969c0 564.649-458.997 1024-1023.222 1024z" />
<glyph unicode="&#xe00c;" glyph-name="uniE00C" horiz-adv-x="792" d="M419.961 959.999c-278.906 0-419.513-199.935-419.513-366.645 0-100.956 38.234-190.771 120.204-224.226 13.448-5.504 25.478-0.198 29.399 14.7 2.702 10.283 9.13 36.288 11.998 47.101 3.921 14.734 2.407 19.874-8.437 32.696-23.632 27.885-38.761 63.976-38.761 115.095 0 148.32 110.976 281.115 288.992 281.115 157.614 0 244.234-96.309 244.234-224.918 0-169.248-74.918-312.065-186.091-312.065-61.405 0-107.384 50.79-92.651 113.052 17.633 74.357 51.812 154.583 51.812 208.273 0 48.056-25.775 88.103-79.17 88.103-62.788 0-113.217-64.931-113.217-151.913 0-55.406 18.721-92.88 18.721-92.88s-64.239-272.151-75.51-319.844c-22.445-94.924-3.395-211.272-1.746-223.040 0.956-6.987 9.888-8.603 13.941-3.363 5.801 7.547 80.553 99.835 105.965 192.056 7.186 26.105 41.299 161.338 41.299 161.338 20.401-38.893 79.994-73.137 143.375-73.137 188.696 0 316.711 172.018 316.711 402.243 0.036 174.13-147.426 336.26-371.554 336.26z" />
<glyph unicode="&#xe00d;" glyph-name="uniE00D" horiz-adv-x="1094" d="M16.792 626.925h233.207v-690.923h-233.207zM134.955 960c-79.804 0-131.955-51.598-131.955-119.376 0-66.288 50.626-119.411 128.905-119.411h1.525c81.293 0 131.955 53.087 131.955 119.411-1.56 67.778-50.661 119.376-130.43 119.376zM822.482 643.143c-123.915 0-179.254-67.085-210.198-114.178v97.961h-233.242c3.083-64.834 0-690.923 0-690.923h233.242v385.848c0 20.652 1.525 41.27 7.692 56.031 16.84 41.27 55.234 83.996 119.652 83.996 84.412 0 118.163-63.378 118.163-156.245v-369.632h233.207l0.002 396.178c0 212.208-115.044 310.965-268.518 310.965z" />
<glyph unicode="&#xe00e;" glyph-name="uniE00E" horiz-adv-x="1152" d="M624.421 959.938c-22.047 0-278.666 0-278.666 0s-282.125-7.010-282.125-248.65c0-241.641 246.643-213.632 246.643-213.632s0-36.563 0-61.298 33.104-16.428 37.211-66.517c-16.645 0-342.713 8.739-342.713-210.142s287.344-208.382 287.344-208.382 332.337-15.317 332.337 256.525c0 162.833-189.545 215.391-189.545 281.044s142.823 84.703 142.823 239.016c0 92.58-8.43 148.412-80.475 181.238-0.031 23.006 127.166 7.875 127.166 50.799zM534.898 189.19c5.682-84.891-83.007-160.085-198.037-167.959s-212.86 54.535-218.542 139.395c-5.713 84.891 82.945 160.054 197.975 167.929s212.891-54.504 218.604-139.364zM365.457 555.65c-68.524-18.837-145.2 44.561-171.295 141.618s8.276 190.996 76.8 209.834c68.524 18.868 145.2-44.53 171.264-141.557 26.094-97.089-8.276-191.027-76.767-209.895zM953.238 763.754v196.246h-57.129v-196.246h-193.776v-57.808h193.776v-196.030h57.129v196.030h193.992v57.808z" />
<glyph unicode="&#xe010;" glyph-name="uniE010" horiz-adv-x="494" d="M302.372 669.385v71.553c0 41.205 35.64 55.885 75.48 55.885s82.512-12.768 82.512-12.768l25.601 156.93c0 0-54.45 19.015-183.593 19.015-79.268 0-125.355-31.168-158.912-77.083-31.885-43.322-33.010-113.339-33.010-158.64v-102.925h-102.415v-153.143h102.415v-532.21h191.923v532.21h151.915l11.368 153.143h-163.282v48.032z" />
<glyph unicode="&#xe011;" glyph-name="uniE011" horiz-adv-x="1578" d="M682.725 279.475c126.633-127.783 221.533 0 221.533 0l671.882 565.225c0 113.557-105.507 114.665-105.507 114.665h-1364.804c-105.846 0-101.418-112.918-101.418-112.918l678.313-566.972zM1253.744 507.312l213.95-453.926-284.87 392.421-222.853-193.293c-87.956-106.485-173.529-92.301-173.529-92.301-102.013 0-168.843 95.837-168.843 95.837l-219.872 190.183-282.186-391.357 221.617 443.704-335.174 289.941v-738.287c0-113.599 105.549-113.599 105.549-113.599h1357.906c102.013 0 112.577 110.021 112.577 110.021v741.865l-324.271-281.208z" />
<glyph unicode="&#xe012;" glyph-name="uniE012" d="M514.144 960c-283.453 0-514.080-224.484-514.080-505.601 0-281.149 230.627-518.399 514.080-518.399s509.792 237.25 509.792 518.399c0 281.117-226.34 505.601-509.792 505.601zM858.325 733.372c61.144-74.103 98.196-172.746 99.156-275.55-14.494 3.040-163.948 32.252-310.041 14.014-3.072 7.455-6.239 14.942-9.471 22.461-9.119 21.245-18.91 42.331-29.116 63.096 162.348 65.752 240.226 163.564 249.473 175.978zM514.144 893.48c111.57 0 217.829-41.499 295.355-109.714-7.903-11.167-78.294-103.539-234.435-161.58-71.927 131.12-151.693 238.818-163.82 254.944 33.020 7.903 67.448 16.35 102.899 16.35zM323.16 852.109c11.583-15.742 94.324-127.856 167.115-256.128-205.414-54.105-386.32-53.305-405.965-53.049 28.476 135.119 116.017 251.713 238.85 309.177zM75.031 453.727c0 4.447 0.096 8.895 0.224 13.31 19.23-0.384 232.003-3.104 451.272 61.976 12.574-24.413 24.573-49.178 35.58-73.911-5.791-1.632-11.583-3.328-17.31-5.183-226.468-72.631-346.965-270.526-356.915-287.388-70.103 77.206-112.85 179.338-112.85 291.196zM514.144 5.463c-101.491 0-195.080 47.13-269.534 104.691 7.903 16.030 96.82 186.377 344.501 271.966 0.96 0.32 1.92 0.64 2.88 0.96 61.656-158.86 87.157-292.027 93.684-330.231-52.729-22.269-110.706-47.386-171.531-47.386zM759.489 92.716c-4.511 26.493-27.869 153.965-85.301 310.489 137.583 21.853 258.496-13.886 273.502-18.622-19.582-121.169-89.717-225.828-188.2-291.868z" />
<glyph unicode="&#xe013;" glyph-name="uniE013" horiz-adv-x="1136" d="M689.098 959.999h-242.194c-227.539 0-411.903-184.898-411.903-412.969 0-186.656 98.977-344.318 268.418-395.539-1.332-5.809-1.919-11.672-1.919-17.535v-145.776c0-48.557 34.272-52.18 68.49-17.749l198.009 174.238h121.098c227.485 0 411.903 184.951 411.903 413.022 0 228.125-184.418 402.309-411.903 402.309zM634.626 348.488h-333.125v67.958h333.125v-67.958zM834.501 484.403h-533.001v67.958h532.999l0.002-67.958zM834.501 620.319h-533.001v67.904h532.999l0.002-67.904z" />
<glyph unicode="&#xe014;" glyph-name="uniE014" d="M512 960l-512-512 512-512 512 512-512 512zM837.755 541.079l-186.158-186.116-232.72 232.678 186.158 186.158 232.72-232.72zM512 866.879l46.562-46.562-46.562-46.518-46.562 46.518 46.562 46.562zM442.137 797.1l46.562-46.562-46.562-46.518-46.518 46.518 46.518 46.562zM372.359 727.238l46.562-46.518-46.562-46.562-46.518 46.562 46.518 46.518zM279.238 634.203l46.562-46.562-46.562-46.562-46.518 46.562 46.518 46.562zM209.459 564.338l46.518-46.518-46.518-46.562-46.562 46.562 46.562 46.518zM93.079 448l46.562 46.562 46.518-46.562-46.518-46.518-46.562 46.518zM186.158 354.921l186.158 186.116 232.72-232.72-186.158-186.158-232.72 232.762zM512 29.123l-46.562 46.562 46.562 46.518 46.518-46.518-46.518-46.562zM581.776 98.944l-46.518 46.518 46.518 46.518 46.562-46.518-46.562-46.518zM651.597 168.72l-46.518 46.518 46.562 46.562 46.518-46.562-46.562-46.518zM744.718 261.842l-46.562 46.518 46.562 46.562 46.518-46.562-46.518-46.518zM814.496 331.662l-46.562 46.518 46.562 46.562 46.518-46.562-46.518-46.518zM837.755 448l46.562 46.562 46.562-46.562-46.562-46.518-46.562 46.518z" />
<glyph unicode="&#xe015;" glyph-name="uniE015" d="M132.209 365.268l-132.21-402.022 176.73 177.107c-12.127 30.56-9.108 82.948 15.684 107.687 33.309 33.254 88.015 32.5 121.323-0.754s35.087-88.93 1.779-122.187c-25.277-25.224-80.955-26.732-112-13.582l-175.113-175.382 393.021 137.923 143.151 257.468-174.355 171.773-258.009-138.031zM909.412 845.388l-114.586 114.478c0 0-243.509-243.185-281.076-280.752-37.62-37.512-57.292-178.778-57.292-178.778l109.196-109.090c0 0 137.87 19.672 177.27 59.018 39.344 39.291 281.076 280.699 281.076 280.699l-114.586 114.423z" />
<glyph unicode="&#xe016;" glyph-name="uniE016" horiz-adv-x="1462" d="M1434.016 721.059c-18.663 44.639-43.803 82.454-75.559 113.583-66.785 67.272-146.731 100.838-239.84 100.838-97.496 0-176.885-30.572-238.238-91.785-25.21-25.071-45.197-54.946-59.96-89.487-14.834-34.681-22.146-69.013-22.146-103.068 0-72.217 21.866-133.918 65.671-185.033 43.803-51.185 101.257-81.27 172.429-90.254l26.253-1.462 19.709-2.995c32.8-3.97 49.235-15.529 49.235-34.611 0-20.057-21.379-51.673-64.069-94.78-44.919-44.151-117.761-90.81-218.461-139.907-41.645-20.126-62.468-45.126-62.468-75.281 0-19.082 7.103-34.889 21.31-47.425 14.276-12.535 32.313-18.802 54.249-18.802 54.737 0 130.366 29.039 226.817 87.259 113.931 68.177 204.602 151.189 272.014 249.032 67.343 97.774 101.047 194.365 101.047 289.633 0.004 45.058-9.329 89.906-27.992 134.546zM574.658 834.71c-66.992 67.204-147.636 100.769-241.997 100.769-96.591 0-176.119-30.572-238.726-91.785-25.21-25.071-45.265-54.668-60.099-88.792-14.763-34.124-22.146-68.735-22.146-103.763 0-72.217 22.285-133.64 66.714-184.267 44.5-50.698 102.441-80.992 173.891-91.020l24.791-1.462 21.449-2.995c32.939-3.97 49.445-15.529 49.445-34.611 0-20.057-22.007-51.673-66.019-94.78-46.172-46.172-119.293-92.831-219.295-139.907-41.784-20.194-62.675-45.265-62.675-75.418 0-19.082 7.103-34.889 21.379-47.425 14.207-12.535 32.383-18.734 54.39-18.734 54.876 0 130.644 29.039 227.165 87.259 114.141 68.177 205.229 151.189 273.337 249.032 68.108 97.774 102.093 194.365 102.093 289.633 0 45.126-9.333 89.974-27.996 134.683-18.665 44.57-43.944 82.384-75.7 113.583z" />
<glyph unicode="&#xe017;" glyph-name="uniE017" horiz-adv-x="1364" d="M436.79 157.462c-73.293-67.315-121.898-63.263-171.402-12.279l-56.706 62.493c-49.506 50.92-49.506 133.599 0 184.583l242.638 249.839c49.506 50.984 129.741 50.984 179.247 0l44.812-46.162c38.253-39.348 46.933-97.661 26.102-145.622l108.333-85.188c74.257 76.444 74.257 200.463 0 276.906l-134.435 138.485c-74.257 76.444-194.613 76.444-268.935 0l-332.198-342.098c-74.257-76.444-74.257-200.463 0-276.906l134.435-138.485c74.257-76.378 194.613-76.378 268.935 0l128.263 136.17-91.616 90.33-77.473-92.066zM1258.124 734.485l-134.435 138.421c-74.257 76.444-194.677 76.444-268.935 0 0 0 5.272 1.351-72.843-79.079l89.301-87.887 39.732 44.94c49.506 50.984 129.805 50.984 179.247 0l44.812-46.162c49.506-50.984 49.506-133.663 0-184.647l-218.915-233.509c-49.506-50.92-129.741-50.92-179.247 0l-36.905 62.493c-77.727 59.598-53.811 73.871-47.253 114.117l-98.559 100.168c-74.257-76.508-74.257-200.463 0-276.906l134.435-138.421c74.257-76.444 194.677-76.444 268.935 0l300.629 309.503c105.888 125.434 0 276.97 0 276.97z" />
<glyph unicode="&#xe018;" glyph-name="uniE018" horiz-adv-x="1280" d="M1191.744 789.312h-262.080c0 0-2.752 5.056-2.752 64 0 58.88-49.408 106.688-110.336 106.688h-353.152c-60.928 0-110.336-47.744-110.336-106.688s2.752-64 2.752-64h-267.584c-48.768 0-88.256-38.208-88.256-85.312v-682.688c0-47.104 39.488-85.312 88.256-85.312h1103.488c48.704 0 88.256 38.208 88.256 85.312v682.688c0 47.104-39.552 85.312-88.256 85.312zM641.984 107.776c-146.24 0-264.832 114.624-264.832 256s118.592 256 264.832 256 264.832-114.624 264.832-256c0-141.376-118.592-256-264.832-256z" />
<glyph unicode="&#xe019;" glyph-name="uniE019" horiz-adv-x="1344" d="M1209.333 161.629v709.194c0 24.693-64.868 89.177-89.689 89.177h-1029.885c-24.693 0-89.625-64.484-89.625-89.177v-709.194c0-24.629 64.932-89.177 89.625-89.177l1029.885-1.407c24.821 0 89.689 43.693 89.689 90.584zM89.759 870.887h1031.037v-713.48h-1031.037v713.48zM673.951 463.321l-86.874 92.376-225.565-262.733-92.376 83.995-134.533-170.805h937.638v170.805l-220.384 315.638zM220.517 717.674c0-62.076 50.609-112.399 113.039-112.399s113.039 50.323 113.039 112.399c0 62.076-50.609 112.399-113.039 112.399s-113.039-50.323-113.039-112.399zM1254.177 826.299l1.151-679.127c0 0 20.023-122.059-72.352-122.059h-1048.373c0-24.629 64.932-89.113 89.689-89.113h1029.885c24.757 0 89.689 67.299 89.689 91.928v709.258c-0.064 24.629-64.932 89.113-89.689 89.113z" />
<glyph unicode="&#xe01a;" glyph-name="uniE01A" horiz-adv-x="1740" d="M-0.006 243.395h511.768v-307.061h-511.768zM614.116 550.354h511.768v-614.122h-511.768zM1228.238 959.768h511.768v-1023.537h-511.768z" />
<glyph unicode="&#xe01b;" glyph-name="uniE01B" horiz-adv-x="870" d="M-0.003 959.709v-1023.417l870.006 514.831z" />
<glyph unicode="&#xe01c;" glyph-name="uniE01C" horiz-adv-x="768" d="M460.8 960h307.2v-1024h-307.2zM0 960h307.2v-1024h-307.2z" />
<glyph unicode="&#xe01d;" glyph-name="uniE01D" horiz-adv-x="1376" d="M1317.023 84.866c-94.121 49.425-162.914 98.39-206.41 146.827-41.382 45.226-62.089 78.388-62.089 99.413 0 20.002 15.522 32.102 46.531 36.337l20.179 3.211 23.283 1.553c67.24 10.512 121.78 42.299 163.689 95.498 41.875 53.163 62.83 117.616 62.83 193.428 0 36.794-6.986 73.097-20.921 108.938-13.935 35.771-32.808 66.853-56.55 93.134-58.88 64.239-133.775 96.341-224.685 96.341-88.794 0-164.713-35.244-227.755-105.763-29.916-32.702-53.693-72.389-71.26-119.238-17.534-46.849-26.352-93.946-26.352-141.288 0-100.012 31.997-201.331 96.098-303.954 64.065-102.66 149.826-189.69 257.247-261.268 90.91-61.066 162.207-91.582 213.855-91.582 20.673 0 37.783 6.562 51.189 19.72s20.108 29.739 20.108 49.776c-0.004 31.503-19.654 57.857-58.988 78.917zM576.928 84.866c-94.827 51.541-163.372 100.472-205.635 146.827-40.217 45.226-60.325 78.388-60.325 99.413 0 20.002 15.452 32.102 46.355 36.337l18.591 3.211 24.729 1.553c66.992 9.489 121.075 40.992 162.279 94.685s61.771 118.427 61.771 194.239c0 35.737-6.914 71.826-20.849 108.127s-32.702 67.628-56.48 93.946c-57.681 64.241-132.434 96.343-224.192 96.343-87.629 0-162.878-35.244-225.742-105.763-29.881-32.704-53.589-72.391-71.121-119.24-17.534-46.849-26.318-93.944-26.318-141.288 0-100.012 31.715-201.331 95.109-303.954 63.43-102.66 148.731-189.69 255.977-261.268 90.771-61.066 161.925-91.582 213.466-91.582 20.637 0 37.677 6.562 51.083 19.72s20.074 29.739 20.074 49.776c0 31.505-19.578 57.859-58.772 78.919z" />
<glyph unicode="&#xe01e;" glyph-name="uniE01E" d="M512 960c-282.766 0-512-229.234-512-512 0-282.738 229.234-512 512-512s512 229.262 512 512c0 282.766-229.234 512-512 512zM512 49.778c-219.932 0-398.222 178.29-398.222 398.222s178.29 398.222 398.222 398.222 398.222-178.29 398.222-398.222-178.29-398.222-398.222-398.222zM480.654 607.432c-41.5 41.5-105.814-22.812-64.312-64.312 31.716-31.716 63.402-63.402 95.118-95.118-31.716-31.716-63.402-63.432-95.118-95.146-41.5-41.528 22.812-105.814 64.312-64.312 42.41 42.41 84.85 84.822 127.26 127.288 17.522 17.494 17.522 46.82 0 64.312-42.41 42.438-84.822 84.848-127.26 127.288z" />
<glyph unicode="&#xe01f;" glyph-name="uniE01F" horiz-adv-x="662" d="M612.449 529.917c-110.79 108.102-221.581 216.204-332.32 324.358-108.413 105.725-276.331-58.109-167.969-163.885 82.821-80.857 165.59-161.609 248.361-242.363-82.769-80.805-165.54-161.662-248.361-242.416-108.361-105.828 59.558-269.61 167.969-163.834 110.79 108.102 221.529 216.204 332.32 324.307 45.702 44.565 45.753 119.27 0 163.834z" />
<glyph unicode="&#xe020;" glyph-name="uniE020" horiz-adv-x="662" d="M49.552 366.082c110.79-108.102 221.58-216.204 332.319-324.358 108.413-105.725 276.33 58.109 167.969 163.885-82.821 80.805-165.591 161.611-248.36 242.365 82.769 80.805 165.54 161.662 248.36 242.416 108.361 105.828-59.558 269.61-167.969 163.834-110.79-108.052-221.529-216.154-332.319-324.308-45.753-44.564-45.753-119.268 0-163.834z" />
<glyph unicode="&#xe021;" glyph-name="uniE021" horiz-adv-x="1364" d="M170.491 754.905h1023.017c94.152 0 170.502 8.116 170.502 102.302 0 94.152-76.351 102.302-170.502 102.302h-1023.017c-94.185 0-170.502-8.15-170.502-102.302 0-94.185 76.317-102.302 170.502-102.302zM1193.508 550.302h-1023.017c-94.185 0-170.502-8.15-170.502-102.302 0-94.185 76.317-102.302 170.502-102.302h1023.017c94.152 0 170.502 8.116 170.502 102.302 0.002 94.152-76.351 102.302-170.502 102.302zM1193.508 141.095h-1023.017c-94.185 0-170.502-8.15-170.502-102.302 0-94.185 76.317-102.302 170.502-102.302h1023.017c94.152 0 170.502 8.116 170.502 102.302 0.002 94.152-76.351 102.302-170.502 102.302z" />
<glyph unicode="&#xe022;" glyph-name="uniE022" horiz-adv-x="1592" d="M788.824 960c-476.874 0-774.881-512-774.881-512s295.201-512 774.881-512c448.709 0 789.233 512 789.233 512s-337.719 512-789.233 512zM793.086 217.386c-130.631 0-236.548 103.004-236.548 230.074s105.864 230.074 236.548 230.074c130.631 0 236.495-103.004 236.495-230.074 0-127.068-105.864-230.074-236.495-230.074zM676.755 447.945c-0.001-0.137-0.001-0.298-0.001-0.46 0-63.235 52.712-114.497 117.735-114.497s117.735 51.262 117.735 114.497c0 0.161 0 0.323-0.001 0.485 0.001 0.112 0.001 0.273 0.001 0.434 0 63.235-52.712 114.497-117.735 114.497s-117.735-51.262-117.735-114.497c0-0.161 0-0.323 0.001-0.485z" />
<glyph unicode="&#xe023;" glyph-name="uniE023" horiz-adv-x="4864" d="M4377.693 934.97h-3891.379c-268.606 0-486.362-217.999-486.362-487.092 0-268.849 217.756-486.848 486.362-486.848h3891.379c268.606 0 486.362 217.999 486.362 486.848 0 269.093-217.756 487.092-486.362 487.092z" />
<glyph unicode="&#xe024;" glyph-name="uniE024" horiz-adv-x="972" d="M874.77 545.261h-291.608v291.995c0 53.819-43.513 97.381-97.185 97.381s-97.235-43.562-97.235-97.381v-291.997l-291.56 0.002c-53.673 0-97.185-43.562-97.185-97.284s43.513-97.284 97.185-97.284h291.608v-291.997c0-53.772 43.562-97.332 97.235-97.332s97.185 43.562 97.185 97.332v291.997h291.608c53.673 0 97.185 43.562 97.185 97.284-0.047 53.722-43.56 97.284-97.233 97.284z" />
<glyph unicode="&#xe025;" glyph-name="uniE025" horiz-adv-x="2456" d="M920.989 243.326c0-56.489-45.848-102.337-102.337-102.337h-511.684c-56.489 0-102.337 45.848-102.337 102.337v409.347c0 56.489 45.848 102.337 102.337 102.337h511.684c56.489 0 102.337-45.848 102.337-102.337h204.674v102.337c0 113.082-91.693 204.674-204.674 204.674h-716.358c-112.98 0-204.674-91.591-204.674-204.674v-614.021c0-113.082 91.693-204.674 204.674-204.674h716.358c112.98 0 204.674 91.693 204.674 204.674v102.337h-204.674zM2251.368 959.684h-716.358c-112.98 0-204.674-91.591-204.674-204.674v-102.337h204.674c0 56.489 45.848 102.337 102.337 102.337h511.684c56.489 0 102.337-45.848 102.337-102.337v-409.347c0-56.489-45.848-102.337-102.337-102.337h-511.684c-56.489 0-102.337 45.848-102.337 102.337v0h-204.674v-102.337c0-113.082 91.693-204.674 204.674-204.674h716.358c112.98 0 204.674 91.693 204.674 204.674v614.021c0 113.082-91.693 204.674-204.674 204.674zM716.316 448c0-56.489 45.848-102.337 102.337-102.337h818.695c56.489 0 102.337 45.848 102.337 102.337s-45.848 102.337-102.337 102.337h-818.695c-56.489 0-102.337-45.848-102.337-102.337z" />
<glyph unicode="&#xe026;" glyph-name="uniE026" d="M694.165 447.975l309.669 309.669c20.116 20.116 20.116 52.728 0 72.895l-109.269 109.319c-20.116 20.116-52.779 20.116-72.895 0l-309.669-309.669-309.72 309.671c-20.116 20.116-52.779 20.116-72.895 0l-109.27-109.269c-20.116-20.116-20.116-52.779 0-72.895l309.72-309.722-309.72-309.669c-20.116-20.116-20.116-52.728 0-72.846l109.319-109.319c20.116-20.116 52.779-20.116 72.895 0l309.72 309.669 309.669-309.669c20.116-20.116 52.728-20.116 72.895 0l109.269 109.319c20.116 20.116 20.116 52.728 0 72.846l-309.718 309.669z" />
<glyph unicode="&#xe029;" glyph-name="uniE029" horiz-adv-x="2340" d="M15.712 448c0-282.77 229.23-512 512-512s512 229.23 512 512c0 282.77-229.23 512-512 512s-512-229.23-512-512zM1300.29 448c0-282.77 229.23-512 512-512s512 229.23 512 512c0 282.77-229.23 512-512 512s-512-229.23-512-512z" />
<glyph unicode="&#xe02a;" glyph-name="uniE02A" d="M826.083 959.986h-628.191c-109.117 0-197.892-88.747-197.892-197.864v-628.245c0-109.117 88.775-197.864 197.892-197.864h628.191c109.117 0 197.892 88.747 197.892 197.864l-0.002 419.224v209.021c0.026 109.117-88.747 197.864-197.89 197.864zM882.859 841.971l22.628 0.078v-173.533l-172.981-0.552-0.578 173.533 150.932 0.474zM365.858 553.1c32.785 45.385 85.992 75.125 146.129 75.125s113.37-29.74 146.129-75.125c21.34-29.636 34.098-65.859 34.098-105.1 0-99.352-80.899-180.199-180.251-180.199-99.378 0-180.225 80.847-180.225 180.199 0.022 39.241 12.78 75.465 34.12 105.1zM924.227 133.876c0-54.125-44.020-98.092-98.144-98.092h-628.191c-54.125 0-98.118 43.994-98.118 98.092l-0.002 419.224h152.849c-13.202-32.471-20.606-67.933-20.606-105.1 0-154.345 125.575-279.999 279.999-279.999 154.397 0 279.999 125.655 279.999 279.999 0 37.196-7.454 72.632-20.658 105.1h152.901l-0.002-419.224z" />
<glyph unicode="&#xe02b;" glyph-name="uniE02B" horiz-adv-x="4608" d="M3971.791 960v-549.274h-3335.676v549.274h-477.897v-1024h4291.563v1024z" />
<glyph unicode="&#xe02c;" glyph-name="uniE02C" horiz-adv-x="2388" d="M989.932 738.164c-15.353 0-27.646-12.245-27.932-27.789l-12.483-503.365 12.483-242.261c0.286-15.306 12.579-27.549 27.885-27.549s27.549 12.245 27.932 27.789v-0.239l13.966 242.261-13.919 503.412c-0.383 15.498-12.628 27.742-27.932 27.742zM891.209 755.192c-14.205 0-25.59-11.288-25.923-25.686l-13.68-522.45 13.68-243.791c0.286-14.301 11.671-25.686 25.923-25.686 14.158 0 25.493 11.384 25.923 25.78v-0.143l15.353 243.838-15.4 522.451c-0.383 14.398-11.718 25.686-25.876 25.686zM41.745 347.582c-4.926 0-8.801-3.875-9.47-9.279l-17.221-130.91 17.219-128.711c0.669-5.358 4.543-9.183 9.47-9.183 4.783 0 8.657 3.778 9.422 9.136l20.424 128.76-20.424 130.959c-0.716 5.403-4.638 9.228-9.421 9.228zM817.169-38.934v-0.143zM2082.901 516.087c-39.699 0-77.677-8.083-112.161-22.48-23.104 261.392-242.214 466.393-509.584 466.393-65.431 0-129.237-12.914-185.534-34.726-21.905-8.465-27.695-17.122-27.932-34.104v-920.398c0.239-17.744 14.015-32.572 31.377-34.343 0.718-0.096 798.718-0.43 803.884-0.43 160.184 0 289.995 129.811 289.995 289.995s-129.861 290.091-290.044 290.091zM1188.427 892.034c-17.411 0-31.712-14.349-31.95-31.903l-13.107-653.218 13.105-237.143c0.239-17.268 14.541-31.567 31.95-31.567 17.362 0 31.663 14.301 31.903 31.759v-0.239l14.254 237.19-14.252 653.265c-0.239 17.505-14.541 31.856-31.903 31.856zM1089.371 835.69c-16.263 0-29.654-13.344-29.894-29.751l-11.288-598.883c0-0.43 11.288-240.729 11.288-240.729 0.286-16.31 13.68-29.703 29.894-29.703s29.654 13.393 29.941 29.847v-0.192l12.579 240.635-12.579 599.026c-0.286 16.406-13.727 29.751-29.941 29.751zM817.169 743.186c-0.43 13.297-10.906 23.677-23.914 23.677-12.962 0-23.485-10.38-23.914-23.677l-14.829-536.082 14.874-246.134c0.383-13.154 10.906-23.581 23.867-23.581s23.388 10.38 23.914 23.628l16.74 246.087-16.738 536.082zM221.539 470.219c-6.219 0-11.192-4.926-11.814-11.624 0-0.047-22.001-251.252-22.001-251.252l22.001-242.116c0.622-6.696 5.597-11.527 11.814-11.527 6.123 0 11.096 4.879 11.814 11.478l25.015 242.116-24.968 251.252c-0.765 6.747-5.74 11.673-11.861 11.673zM314.998 479.019c-7.317 0-13.297-5.787-13.87-13.632l-20.854-258.093 20.854-249.675c0.575-7.796 6.505-13.583 13.87-13.583 7.174 0 13.105 5.787 13.776 13.583l23.628 249.675-23.628 258.142c-0.718 7.796-6.601 13.583-13.776 13.583zM128.892 428.654c-4.975 0-9.087-4.018-9.805-9.47 0-0.047-23.198-211.793-23.198-211.793l23.198-207.057c0.718-5.548 4.83-9.519 9.805-9.519s8.993 3.875 9.805 9.47l26.355 207.106-26.355 211.793c-0.765 5.595-4.832 9.47-9.805 9.47zM409.080 462.423c-8.514 0-15.353-6.792-15.879-15.688l-19.61-239.438 19.61-251.778c0.526-8.944 7.317-15.592 15.879-15.592 8.418 0 15.21 6.696 15.832 15.592v-0.047l22.29 251.827-22.29 239.581c-0.573 8.799-7.414 15.543-15.832 15.543zM599.636 705.496c-10.666 0-19.42-8.61-19.849-19.659l-17.219-478.686 17.219-250.2c0.479-10.953 9.183-19.563 19.849-19.563 10.619 0 19.371 8.657 19.849 19.659v-0.192l19.467 250.297-19.467 478.686c-0.479 11.049-9.23 19.659-19.849 19.659zM503.975 614.428c-9.519 0-17.315-7.749-17.84-17.65l-18.415-389.625 18.415-251.827c0.526-9.805 8.322-17.601 17.84-17.601 9.47 0 17.315 7.796 17.84 17.697v-0.096l20.901 251.827-20.901 389.625c-0.526 9.901-8.369 17.65-17.84 17.65zM696.109 747.443c-11.91 0-21.476-9.519-21.905-21.715 0-0.047-16.071-518.624-16.071-518.624l16.071-247.666c0.383-12.053 9.997-21.572 21.905-21.572 11.767 0 21.38 9.519 21.858 21.715v-0.192l18.127 247.713-18.127 518.626c-0.477 12.149-10.091 21.715-21.858 21.715z" />
<glyph unicode="&#xe02d;" glyph-name="uniE02D" horiz-adv-x="1050" d="M858.15 472.257h-666.3c-105.914 0-191.773-85.705-191.773-191.313v-153.684c0-105.608 85.859-191.26 191.773-191.26h666.3c105.914 0 191.773 85.679 191.773 191.26v153.684c0 105.608-85.859 191.313-191.773 191.313zM331.832 352.588h-61.935v-306.933l-59.836-0.002v306.935h-61.935v52.226h183.703l0.002-52.226zM506.826 45.652h-53.098v29.046c-9.861-10.733-20.030-18.929-30.659-24.488-10.604-5.763-20.849-8.477-30.839-8.477-12.321 0-21.464 3.892-27.74 11.833-6.173 7.916-9.324 19.645-9.324 35.502v221.511h53.098v-203.273c0-6.275 1.153-10.784 3.278-13.576 2.306-2.893 5.968-4.226 10.938-4.226 3.816 0 8.811 1.818 14.805 5.533 6.019 3.74 11.474 8.477 16.469 14.241v201.249h53.098l0.002-264.876zM699.547 100.339c0-18.699-4.15-33.094-12.501-43.16-8.247-10.015-20.363-14.959-36.066-14.959-10.45 0-19.723 1.869-27.791 5.763-8.12 3.816-15.753 9.759-22.695 17.956v-20.287h-53.688l0.004 359.136h53.688v-115.673c7.198 8.017 14.83 14.216 22.746 18.365 8.12 4.277 16.291 6.327 24.539 6.327 16.803 0 29.61-5.584 38.473-16.879 8.914-11.297 13.32-27.816 13.32-49.538l-0.004-147.052zM883.713 171.752h-101.585v-49.922c0-13.935 1.69-23.616 5.174-29.020 3.535-5.43 9.529-8.042 18.006-8.042 8.836 0 14.934 2.279 18.467 6.864 3.457 4.61 5.303 14.625 5.303 30.224v12.063h54.634v-13.576c0-27.177-6.608-47.616-20.055-61.449-13.217-13.652-33.119-20.465-59.578-20.465-23.795 0-42.57 7.248-56.197 21.823-13.601 14.446-20.543 34.554-20.543 60.091v119.029c0 22.9 7.557 41.726 22.591 56.197 15.035 14.446 34.323 21.669 58.144 21.669 24.308 0 43.006-6.684 56.070-20.082 13.037-13.421 19.569-32.657 19.569-57.76l-0.002-67.644zM805.82 270.853c-8.477 0-14.498-2.382-18.186-7.326-3.74-4.661-5.508-12.627-5.508-23.745v-26.767h46.951v26.767c0 11.143-1.894 19.109-5.609 23.745-3.586 4.919-9.58 7.326-17.647 7.326zM622.679 271.723c-3.791 0-7.557-0.819-11.269-2.562-3.715-1.69-7.352-4.482-10.963-8.095v-165.082c4.277-4.277 8.505-7.557 12.577-9.426 4.125-1.818 8.325-2.843 12.832-2.843 6.532 0 11.297 1.869 14.344 5.66 2.997 3.74 4.585 9.759 4.585 18.237v136.856c0 8.991-1.818 15.753-5.559 20.363-3.867 4.612-9.4 6.891-16.547 6.891zM279.092 564.287h67.312v164.161l78.355 231.552h-68.416l-41.648-158.193h-4.253l-43.722 158.193h-67.802l80.174-238.954zM515.945 556.937c27.177 0 48.513 7.096 64.036 21.312 15.445 14.294 23.155 33.759 23.155 58.759l-0.002 150.763c0 22.207-7.916 40.522-23.616 54.634-15.854 14.061-36.116 21.157-60.885 21.157-27.151 0-48.82-6.712-64.906-20.082-16.087-13.396-24.129-31.326-24.129-54.019v-151.302c0-24.82 7.863-44.467 23.514-59.194 15.728-14.678 36.68-22.028 62.832-22.028zM491.151 791.663c0 6.353 2.279 11.474 6.762 15.47 4.636 3.945 10.528 5.84 17.827 5.84 7.916 0 14.294-1.894 19.185-5.84 4.841-3.996 7.301-9.119 7.301-15.47v-159.038c0-7.787-2.408-13.96-7.198-18.467-4.765-4.456-11.219-6.684-19.288-6.684-7.888 0-14.011 2.127-18.237 6.608-4.226 4.406-6.353 10.528-6.353 18.545v159.036zM693.425 560.036c11.219 0 22.771 3.202 34.655 9.324 12.013 6.224 23.489 15.343 34.425 27.253v-32.325h59.808l0.004 291.898h-59.808v-221.562c-5.559-6.353-11.732-11.552-18.391-15.675-6.762-4.099-12.321-6.148-16.727-6.148-5.609 0-9.709 1.537-12.142 4.686-2.484 3.073-3.867 8.042-3.867 14.908l-0.002 223.79h-59.707v-243.949c0-17.417 3.51-30.404 10.475-39.010 7.045-8.76 17.394-13.191 31.276-13.191z" />
<glyph unicode="&#xe02e;" glyph-name="github" d="M512.008 947.358c-282.738 0-512.008-229.218-512.008-511.998 0-226.214 146.704-418.132 350.136-485.836 25.586-4.738 34.992 11.11 34.992 24.632 0 12.204-0.48 52.542-0.696 95.324-142.448-30.976-172.504 60.41-172.504 60.41-23.282 59.176-56.848 74.916-56.848 74.916-46.452 31.778 3.51 31.124 3.51 31.124 51.4-3.61 78.476-52.766 78.476-52.766 45.672-78.27 119.776-55.64 149.004-42.558 4.588 33.086 17.852 55.68 32.506 68.464-113.73 12.942-233.276 56.85-233.276 253.032 0 55.898 20.004 101.574 52.76 137.428-5.316 12.9-22.854 64.972 4.952 135.5 0 0 43.006 13.752 140.84-52.49 40.836 11.348 84.636 17.036 128.154 17.234 43.502-0.198 87.336-5.886 128.256-17.234 97.734 66.244 140.656 52.49 140.656 52.49 27.872-70.528 10.35-122.6 5.036-135.5 32.82-35.856 52.694-81.532 52.694-137.428 0-196.654-119.778-239.95-233.79-252.624 18.364-15.89 34.724-47.046 34.724-94.812 0-68.508-0.596-123.644-0.596-140.508 0-13.628 9.222-29.594 35.172-24.566 203.322 67.776 349.842 259.626 349.842 485.768 0 282.78-229.234 511.998-511.992 511.998z" />
<glyph unicode="&#xe02f;" glyph-name="git" d="M1004.692 493.606l-447.096 447.080c-25.738 25.754-67.496 25.754-93.268 0l-103.882-103.876 78.17-78.17c12.532 5.996 26.564 9.36 41.384 9.36 53.020 0 96-42.98 96-96 0-14.82-3.364-28.854-9.362-41.386l127.976-127.974c12.532 5.996 26.566 9.36 41.386 9.36 53.020 0 96-42.98 96-96s-42.98-96-96-96-96 42.98-96 96c0 14.82 3.364 28.854 9.362 41.386l-127.976 127.974c-3.042-1.456-6.176-2.742-9.384-3.876v-266.968c37.282-13.182 64-48.718 64-90.516 0-53.020-42.98-96-96-96s-96 42.98-96 96c0 41.796 26.718 77.334 64 90.516v266.968c-37.282 13.18-64 48.72-64 90.516 0 14.82 3.364 28.852 9.36 41.384l-78.17 78.17-295.892-295.876c-25.75-25.776-25.75-67.534 0-93.288l447.12-447.080c25.738-25.75 67.484-25.75 93.268 0l445.006 445.006c25.758 25.762 25.758 67.54-0.002 93.29z" />
<glyph unicode="&#xe030;" glyph-name="spotify" d="M512 960c-281.6 0-512-230.4-512-512s230.4-512 512-512 512 230.4 512 512-227.8 512-512 512zM747.6 220.2c-10.2-15.4-28.2-20.4-43.6-10.2-120.4 74.2-271.4 89.6-450.6 48.6-18-5.2-33.2 7.6-38.4 23-5.2 18 7.6 33.2 23 38.4 194.6 43.6 363.6 25.6 496.6-56.4 18-7.6 20.6-28 13-43.4zM809 361c-12.8-18-35.8-25.6-53.8-12.8-138.2 84.4-348.2 110-509.4 58.8-20.4-5.2-43.6 5.2-48.6 25.6-5.2 20.4 5.2 43.6 25.6 48.6 186.8 56.4 417.2 28.2 576-69.2 15.2-7.6 23-33.2 10.2-51zM814 504.4c-163.8 97.2-437.8 107.6-594 58.8-25.6-7.6-51.2 7.6-58.8 30.8-7.6 25.6 7.6 51.2 30.8 58.8 181.8 53.8 481.2 43.6 670.8-69.2 23-12.8 30.8-43.6 18-66.6-13-17.8-43.6-25.4-66.8-12.6z" />
</font>
</defs>
</svg>
